<?xml version="1.0" standalone="no"?>
<!DOCTYPE svg PUBLIC "-//W3C//DTD SVG 1.1//EN" "http://www.w3.org/Graphics/SVG/1.1/DTD/svg11.dtd" >
<svg xmlns="http://www.w3.org/2000/svg">
<metadata>Generated by IcoMoon</metadata>
<defs>
<font id="icomoon" horiz-adv-x="512">
<font-face units-per-em="512" ascent="480" descent="-32" />
<missing-glyph horiz-adv-x="512" />
<glyph unicode="&#x20;" d="" horiz-adv-x="256" />
<glyph unicode="&#xe600;" d="M448 288h-128v128c0 35.2-28.8 64-64 64s-64-28.8-64-64v-128h-128c-35.2 0-64-28.8-64-64s28.8-64 64-64h128v-128c0-35.2 28.8-64 64-64s64 28.8 64 64v128h128c35.2 0 64 28.8 64 64s-28.8 64-64 64z" />
<glyph unicode="&#xe601;" d="M0 480l358.543-512 358.543 512h-717.087z" horiz-adv-x="717" />
<glyph unicode="&#xe602;" d="M563.2 275.2h-389.12l117.76 117.76c20.48 20.48 20.48 51.2 0 71.68s-51.2 20.48-71.68 0l-204.8-204.8c-20.48-20.48-20.48-51.2 0-71.68l204.8-204.8c10.24-10.24 20.48-15.36 35.84-15.36s25.6 5.12 35.84 15.36c20.48 20.48 20.48 51.2 0 71.68l-117.76 117.76h389.12c30.72 0 51.2 20.48 51.2 51.2s-20.48 51.2-51.2 51.2z" horiz-adv-x="615" />
<glyph unicode="&#xe603;" d="M51.2 172.8h389.12l-117.76-117.76c-20.48-20.48-20.48-51.2 0-71.68s51.2-20.48 71.68 0l204.8 204.8c20.48 20.48 20.48 51.2 0 71.68l-204.8 204.8c-10.24 10.24-20.48 15.36-35.84 15.36s-25.6-5.12-35.84-15.36c-20.48-20.48-20.48-51.2 0-71.68l117.76-117.76h-389.12c-30.72 0-51.2-20.48-51.2-51.2s20.48-51.2 51.2-51.2z" horiz-adv-x="615" />
<glyph unicode="&#xe604;" d="M365.714 480l-365.714-256 365.714-256v512z" horiz-adv-x="366" />
<glyph unicode="&#xe605;" d="M0-32l365.714 256-365.714 256v-512z" horiz-adv-x="366" />
<glyph unicode="&#xe606;" d="M717.087-33.434l-358.543 513.434-358.543-513.434h717.087z" horiz-adv-x="717" />
<glyph unicode="&#xe607;" d="M566.857 480h-512c-31.085 0-54.857-23.772-54.857-54.857v-402.286c0-31.086 23.771-54.857 54.857-54.857h512c31.086 0 54.857 23.772 54.857 54.857v402.286c0 31.086-23.771 54.857-54.857 54.857zM585.143 22.857c0-10.971-7.314-18.286-18.285-18.286h-512c-10.971 0-18.285 7.315-18.285 18.286v310.857h548.572v-310.857zM585.143 370.286h-548.572v54.857c0 10.971 7.315 18.286 18.285 18.286h512c10.971 0 18.285-7.315 18.285-18.286v-54.857zM146.286 187.428c20.114 0 36.572 16.457 36.572 36.572s-16.457 36.572-36.572 36.572c-20.114 0-36.572-16.457-36.572-36.572s16.457-36.572 36.572-36.572zM256 187.428c20.115 0 36.572 16.457 36.572 36.572s-16.457 36.572-36.572 36.572c-20.114 0-36.572-16.457-36.572-36.572s16.457-36.572 36.572-36.572zM365.714 187.428c20.115 0 36.572 16.457 36.572 36.572s-16.457 36.572-36.572 36.572c-20.115 0-36.572-16.457-36.572-36.572s16.457-36.572 36.572-36.572zM475.428 187.428c20.115 0 36.572 16.457 36.572 36.572s-16.457 36.572-36.572 36.572c-20.115 0-36.572-16.457-36.572-36.572s16.457-36.572 36.572-36.572z" horiz-adv-x="622" />
<glyph unicode="&#xe608;" d="M566.857 480h-512c-31.085 0-54.857-23.772-54.857-54.857v-402.286c0-31.086 23.771-54.857 54.857-54.857h512c31.086 0 54.857 23.772 54.857 54.857v402.286c0 31.086-23.771 54.857-54.857 54.857zM585.143 22.857c0-10.971-7.314-18.286-18.285-18.286h-512c-10.971 0-18.285 7.315-18.285 18.286v310.857h548.572v-310.857zM585.143 370.286h-548.572v54.857c0 10.971 7.315 18.286 18.285 18.286h512c10.971 0 18.285-7.315 18.285-18.286v-54.857zM146.286 187.428c20.114 0 36.572 16.457 36.572 36.572s-16.457 36.572-36.572 36.572c-20.114 0-36.572-16.457-36.572-36.572s16.457-36.572 36.572-36.572z" horiz-adv-x="622" />
<glyph unicode="&#xe609;" d="M566.857 480h-512c-31.085 0-54.857-23.772-54.857-54.857v-402.286c0-31.086 23.771-54.857 54.857-54.857h512c31.086 0 54.857 23.772 54.857 54.857v402.286c0 31.086-23.771 54.857-54.857 54.857zM585.143 22.857c0-10.971-7.314-18.286-18.285-18.286h-512c-10.971 0-18.285 7.315-18.285 18.286v310.857h548.572v-310.857zM585.143 370.286h-548.572v54.857c0 10.971 7.315 18.286 18.285 18.286h512c10.971 0 18.285-7.315 18.285-18.286v-54.857zM146.286 187.428c20.114 0 36.572 16.457 36.572 36.572s-16.457 36.572-36.572 36.572c-20.114 0-36.572-16.457-36.572-36.572s16.457-36.572 36.572-36.572zM256 187.428c20.115 0 36.572 16.457 36.572 36.572s-16.457 36.572-36.572 36.572c-20.114 0-36.572-16.457-36.572-36.572s16.457-36.572 36.572-36.572zM365.714 187.428c20.115 0 36.572 16.457 36.572 36.572s-16.457 36.572-36.572 36.572c-20.115 0-36.572-16.457-36.572-36.572s16.457-36.572 36.572-36.572zM475.428 187.428c20.115 0 36.572 16.457 36.572 36.572s-16.457 36.572-36.572 36.572c-20.115 0-36.572-16.457-36.572-36.572s16.457-36.572 36.572-36.572zM146.286 77.714c20.114 0 36.572 16.457 36.572 36.572s-16.457 36.572-36.572 36.572c-20.114 0-36.572-16.457-36.572-36.572s16.457-36.572 36.572-36.572zM256 77.714c20.115 0 36.572 16.457 36.572 36.572s-16.457 36.572-36.572 36.572c-20.114 0-36.572-16.457-36.572-36.572s16.457-36.572 36.572-36.572zM365.714 77.714c20.115 0 36.572 16.457 36.572 36.572s-16.457 36.572-36.572 36.572c-20.115 0-36.572-16.457-36.572-36.572s16.457-36.572 36.572-36.572zM475.428 77.714c20.115 0 36.572 16.457 36.572 36.572s-16.457 36.572-36.572 36.572c-20.115 0-36.572-16.457-36.572-36.572s16.457-36.572 36.572-36.572z" horiz-adv-x="622" />
<glyph unicode="&#xe60a;" d="M331.52 303.36l-104.192 47.616-103.936-47.616 103.936-47.616zM419.072 391.936l-160.768 81.152c-19.2 9.216-41.216 9.216-60.416 0l-161.28-81.152c-22.272-11.264-36.608-34.048-36.608-58.368v-218.88c0-24.832 14.336-47.616 36.352-58.368l160.768-81.408c19.2-9.216 41.216-9.216 60.416 0l160.768 81.152c22.016 11.264 36.352 34.048 36.352 58.368v218.624c0.768 24.832-13.568 47.616-35.584 58.88zM80.128 315.136l138.24 63.488c5.376 2.56 12.288 2.56 17.664 0l138.24-63.488c5.376-2.304 8.704-6.912 8.192-11.776 0-4.864-3.072-9.472-8.448-11.776l-138.24-63.488c-2.56-1.28-5.632-1.792-8.704-1.792s-5.888 0.512-8.704 1.792l-138.24 63.488c-5.12 2.56-8.448 6.912-8.448 11.776s3.072 9.216 8.448 11.776zM73.984 227.584c4.864 6.4 15.616 8.704 23.808 4.864l129.28-59.648 129.536 59.392c8.448 3.584 18.944 1.536 23.296-4.864 4.864-6.656 2.048-14.848-6.144-18.688l-138.24-63.488c-0.512-0.256-0.768-0.256-1.28-0.512-0.256 0-0.512-0.256-0.768-0.256-0.256-0.256-0.512-0.256-0.768-0.256-2.048-0.512-3.84-0.768-5.888-0.768-1.792 0-3.84 0.256-5.632 0.768-0.256 0-0.512 0.256-0.768 0.256s-0.512 0.256-0.768 0.256-0.768 0.256-1.28 0.512l-138.24 63.488c-8.192 3.84-11.008 12.288-6.144 18.944zM374.272 130.816l-138.24-63.488c-0.256 0-0.256 0-0.256 0-0.512-0.256-0.768-0.256-1.28-0.512-0.256 0-0.512-0.256-0.768-0.256-0.512 0-0.768-0.256-1.28-0.256s-0.768-0.256-1.024-0.256-0.768-0.256-1.024-0.256c-0.512-0.256-0.768-0.256-1.28-0.256 0 0-0.256 0-0.512 0-0.512 0-1.024 0-1.536 0-1.28 0-2.56 0-3.84 0.256-0.256 0-0.512 0-0.768 0s-0.768 0.256-1.024 0.256-0.768 0.256-1.024 0.256-0.512 0.256-0.768 0.256c-0.256 0.256-0.768 0.256-1.28 0.512l-138.24 63.488c-8.192 3.84-11.008 12.288-6.144 18.688s15.616 8.704 23.808 4.864l129.536-59.392 129.536 59.392c8.448 3.84 18.944 1.792 23.552-4.608 4.864-6.656 2.048-14.848-6.144-18.688z" horiz-adv-x="455" />
<glyph unicode="&#xe60b;" d="M13.299 200.728l224.416-103.065c0 0 1.662 0 1.662 0s0 0 1.662 0 0 0 1.662 0c3.325 0 6.649-1.663 8.311-1.663 3.325 0 6.649 0 9.974 1.663 0 0 0 0 1.663 0 0 0 0 0 1.663 0s1.663 0 1.663 0l224.416 103.065c13.298 6.649 18.286 19.948 9.974 29.922-6.649 9.974-24.935 13.298-38.234 8.311l-209.454-96.416-209.454 96.416c-13.299 6.649-31.584 1.662-38.234-8.311-9.974-9.974-4.987-23.273 8.312-29.922zM13.299 74.389l224.416-103.065c0 0 1.662 0 1.662 0s0 0 1.662 0 1.662 0 1.662 0 1.662 0 1.662 0c0 0 0 0 1.662 0s3.325 0 6.649 0c0 0 1.662 0 1.662 0s0 0 0 0c1.663 0 1.663 0 1.663 0s1.663 0 1.663 0c0 0 0 0 1.663 0s1.663 0 1.663 0 0 0 1.663 0c0 0 1.663 0 1.663 0s0 0 0 0l224.416 103.065c13.298 6.649 18.286 19.948 9.974 29.922s-24.935 13.298-38.234 8.312l-207.792-96.416-209.454 96.416c-13.299 6.649-31.584 3.325-38.234-8.312-9.974-9.974-4.987-24.935 8.312-29.922zM490.389 373.611l-224.416 103.065c-8.312 3.325-19.948 3.325-28.26 0l-224.416-103.065c-8.312-3.325-13.299-11.637-13.299-19.948s4.987-14.961 13.299-19.948l224.416-103.065c4.987-1.662 8.311-3.325 14.961-3.325 4.987 0 9.974 1.662 13.298 3.325l224.416 103.065c8.312 3.325 13.298 11.637 13.298 19.948 1.663 8.311-3.325 16.623-13.298 19.948zM252.675 277.195l-167.896 78.13 167.896 76.468 169.559-78.13-169.559-76.468z" horiz-adv-x="504" />
<glyph unicode="&#xe60c;" d="M344.178 138.666l-344.178 292.978c0 45.511 36.978 48.356 36.978 48.356h665.6c0 0 36.978-2.844 36.978-48.356l-341.334-292.978c0 0-2.844-2.844-8.534-2.844v0c-5.689-2.844-11.378-2.844-17.067-2.844s-11.378 0-17.067 2.844v0c-8.534 2.844-11.378 2.844-11.378 2.844zM369.778 73.245c-11.378 0-31.289 5.689-51.2 22.755-34.133 28.445-238.934 207.644-301.511 261.689-5.689 5.689-17.067 0-17.067-8.534v-341.334c0 0 0-39.822 42.666-39.822 34.133 0 227.555 0 310.044 0 22.755 0 36.978 0 36.978 0 82.489 0 273.067 0 307.2 0 42.667 0 42.667 39.822 42.667 39.822v341.334c0 8.534-11.378 14.222-19.911 8.534-62.578-54.045-267.378-233.244-298.666-261.689-19.911-17.067-36.978-22.755-51.2-22.755z" horiz-adv-x="740" />
<glyph unicode="&#xe60d;" d="M409.6 318.142c-16.516 16.516-42.942 5.506-59.458-11.011l-52.851-50.649v181.678c0 25.325-13.213 41.841-38.538 41.841s-38.537-16.516-38.537-41.841v-182.779l-52.852 50.649c-16.516 16.516-41.841 27.527-58.357 11.011s-16.516-41.841 0-58.357l121.119-121.118c16.516-16.516 41.841-16.516 58.357 0l121.118 121.118c8.808 8.808 12.112 16.516 12.112 28.628s-3.303 23.123-12.112 30.83zM0 13.144c0-24.224 17.617-45.144 41.841-45.144h436.026c24.224 0 40.74 18.719 40.74 42.942v134.331c0 24.224-15.415 44.043-38.538 44.043-24.224 0-38.538-19.82-38.538-44.043v-100.198h-364.456v100.198c0 24.224-14.314 44.043-38.538 44.043s-38.538-19.82-38.538-44.043v-89.187z" horiz-adv-x="518" />
<glyph unicode="&#xe60e;" d="M503.466 369.067l-100.267 100.266c-12.8 12.8-32 12.8-44.8 0l-273.067-270.933c-2.133-2.134-4.266-6.4-6.4-10.666l-74.666-177.066c-4.266-12.8-2.134-25.6 6.4-34.134 4.266-6.4 12.8-8.534 21.334-8.534 4.267 0 8.533 0 12.8 2.134l177.067 74.666c4.267 2.134 6.4 4.267 10.666 6.4l273.067 273.067c8.533 12.8 8.533 34.133-2.134 44.8zM189.867 102.4l-98.133-42.666 42.666 98.133 187.733 187.733 55.466-55.466-187.733-187.733z" />
<glyph unicode="&#xe60f;" d="M256 480c-140.8 0-256-115.2-256-256s115.2-256 256-256 256 115.2 256 256c0 140.8-115.2 256-256 256zM407.040 72.96c-20.48-20.48-43.52-35.84-69.12-46.080-7.68-2.56-12.8-5.12-20.48-7.68v38.4c0 20.48-7.68 35.84-20.48 43.52 7.68 0 15.36 2.56 23.040 2.56 7.68 2.56 15.36 2.56 23.040 7.68 7.68 2.56 15.36 5.12 20.48 10.24 7.68 5.12 12.8 10.24 17.92 15.36s10.24 12.8 15.36 20.48c5.12 7.68 7.68 17.92 10.24 28.16s2.56 23.040 2.56 35.84-7.68 48.64-25.6 66.56c7.68 20.48 7.68 40.96-2.56 64h-5.12c-5.12 0-12.8-2.56-23.040-5.12-10.24-5.12-23.040-10.24-38.4-20.48-20.48 5.12-40.96 7.68-61.44 7.68s-40.96-2.56-61.44-7.68c-5.12 7.68-12.8 12.8-20.48 17.92-10.24 2.56-15.36 7.68-20.48 7.68-5.12 2.56-7.68 2.56-12.8 2.56s-7.68 0-7.68 0c0 0-2.56 0-2.56 0-10.24-23.040-10.24-46.080-2.56-64-17.92-17.92-25.6-40.96-25.6-66.56 0-12.8 0-25.6 2.56-35.84s5.12-20.48 10.24-28.16c5.12-7.68 7.68-15.36 15.36-20.48 5.12-5.12 12.8-10.24 17.92-15.36 7.68-5.12 12.8-7.68 20.48-10.24s15.36-5.12 23.040-7.68c7.68-2.56 15.36-2.56 23.040-2.56-12.8-10.24-20.48-23.040-20.48-43.52v-40.96c-5.12 0-12.8 2.56-20.48 7.68-25.6 10.24-48.64 25.6-69.12 46.080s-35.84 43.52-46.080 69.12c-10.24 25.6-17.92 53.76-17.92 84.48 0 28.16 5.12 56.32 17.92 84.48 10.24 25.6 25.6 48.64 46.080 69.12s43.52 35.84 69.12 46.080c25.6 10.24 53.76 17.92 84.48 17.92s56.32-5.12 84.48-17.92c25.6-10.24 48.64-25.6 69.12-46.080s35.84-43.52 46.080-69.12c10.24-25.6 17.92-53.76 17.92-84.48 0-28.16-5.12-56.32-17.92-84.48s-28.16-51.2-48.64-69.12z" />
<glyph unicode="&#xe610;" d="M256 480c-141.312 0-256-114.688-256-256s114.688-256 256-256 256 114.688 256 256-114.688 256-256 256zM256 19.2c-112.64 0-204.8 92.16-204.8 204.8s92.16 204.8 204.8 204.8 204.8-92.16 204.8-204.8-92.16-204.8-204.8-204.8zM381.952 224h-251.904c-16.384 0-27.648-14.336-24.576-29.696 14.336-70.656 75.776-123.904 150.528-123.904s136.192 53.248 150.528 123.904c3.072 15.36-8.192 29.696-24.576 29.696zM210.944 297.728c0-21.49-17.422-38.912-38.912-38.912s-38.912 17.421-38.912 38.912c0 21.49 17.422 38.912 38.912 38.912s38.912-17.421 38.912-38.912zM378.88 297.728c0-21.49-17.421-38.912-38.912-38.912s-38.912 17.421-38.912 38.912c0 21.49 17.421 38.912 38.912 38.912s38.912-17.421 38.912-38.912z" />
<glyph unicode="&#xe611;" d="M256 428.8c112.64 0 204.8-92.16 204.8-204.8s-92.16-204.8-204.8-204.8-204.8 92.16-204.8 204.8 92.16 204.8 204.8 204.8zM256 480c-141.312 0-256-114.688-256-256s114.688-256 256-256 256 114.688 256 256-114.688 256-256 256v0zM210.944 297.728c0-21.49-17.422-38.912-38.912-38.912s-38.912 17.421-38.912 38.912c0 21.49 17.422 38.912 38.912 38.912s38.912-17.421 38.912-38.912zM378.88 297.728c0-21.49-17.421-38.912-38.912-38.912s-38.912 17.421-38.912 38.912c0 21.49 17.421 38.912 38.912 38.912s38.912-17.421 38.912-38.912zM358.4 147.2h-204.8c-14.336 0-25.6 11.264-25.6 25.6v0c0 14.336 11.264 25.6 25.6 25.6h204.8c14.336 0 25.6-11.264 25.6-25.6v0c0-14.336-11.264-25.6-25.6-25.6z" />
<glyph unicode="&#xe612;" d="M256 428.8c112.64 0 204.8-92.16 204.8-204.8s-92.16-204.8-204.8-204.8-204.8 92.16-204.8 204.8 92.16 204.8 204.8 204.8zM256 480c-141.312 0-256-114.688-256-256s114.688-256 256-256 256 114.688 256 256-114.688 256-256 256v0zM210.944 297.728c0-21.49-17.422-38.912-38.912-38.912s-38.912 17.421-38.912 38.912c0 21.49 17.422 38.912 38.912 38.912s38.912-17.421 38.912-38.912zM378.88 297.728c0-21.49-17.421-38.912-38.912-38.912s-38.912 17.421-38.912 38.912c0 21.49 17.421 38.912 38.912 38.912s38.912-17.421 38.912-38.912zM390.144 173.824l-206.848-56.32c-13.312-4.096-27.648 4.096-31.744 18.432v0c-4.096 13.312 4.096 27.648 18.432 31.744l206.848 56.32c13.312 4.096 27.648-4.096 31.744-18.432v0c4.096-14.336-4.096-28.672-18.432-31.744z" horiz-adv-x="511" />
<glyph unicode="&#xe613;" d="M256 480c-141.312 0-256-114.688-256-256s114.688-256 256-256 256 114.688 256 256-114.688 256-256 256zM256 19.2c-112.64 0-204.8 92.16-204.8 204.8s92.16 204.8 204.8 204.8 204.8-92.16 204.8-204.8-92.16-204.8-204.8-204.8zM131.072 257.792c5.12-5.12 13.312-5.12 18.432 0l27.136 27.136 27.136-27.136c5.12-5.12 13.312-5.12 18.432 0s5.12 13.312 0 18.432l-27.136 27.136 27.136 27.136c5.12 5.12 5.12 12.288 0 18.432-5.12 5.12-13.312 5.12-18.432 0l-27.136-27.136-27.136 27.136c-5.12 5.12-13.312 5.12-18.432 0s-5.12-13.312 0-18.432l27.136-27.136-27.136-27.136c-5.12-5.12-5.12-13.312 0-18.432zM353.28 303.872l26.624 26.624c5.12 5.12 5.12 12.288 0 18.432-5.12 5.12-13.312 5.12-18.432 0l-26.624-26.624-26.624 26.624c-5.12 5.12-13.312 5.12-18.432 0s-5.12-13.312 0-18.432l26.624-26.624-27.648-27.648c-5.12-5.12-5.12-13.312 0-18.432s13.312-5.12 18.432 0l27.648 27.648 27.648-27.648c5.12-5.12 12.288-5.12 18.432 0 5.12 5.12 5.12 13.312 0 18.432l-27.648 27.648zM370.688 198.4h-230.4c-6.144 0-12.288-5.12-12.288-12.288 0-6.144 5.12-12.288 12.288-12.288h13.312v-52.224c0-28.672 22.528-51.2 51.2-51.2s51.2 22.528 51.2 51.2v52.224h114.688c7.168 0 13.312 6.144 12.288 12.288 0 6.144-5.12 12.288-12.288 12.288zM230.4 121.6c0-14.336-11.264-25.6-25.6-25.6s-25.6 11.264-25.6 25.6v51.2h51.2v-51.2z" />
<glyph unicode="&#xe614;" d="M316.8 480c-131.2 0-233.6-102.4-252.8-224h-64l96-128 96 128h-64c19.2 92.8 89.6 166.4 188.8 166.4 112 0 201.6-89.6 201.6-198.4s-89.6-198.4-201.6-198.4c-51.2 0-96 19.2-131.2 48-6.4 6.4-16 6.4-22.4 0l-16-16c-6.4-6.4-6.4-16 0-22.4 44.8-38.4 105.6-64 169.6-64 144 0 259.2 115.2 259.2 256 0 137.6-115.2 252.8-259.2 252.8zM348.8 208c3.2 9.6 9.6 19.2 19.2 22.4l86.4 28.8c-3.2 16-3.2 12.8-6.4 28.8h-160c0-25.6 0-16 0-32v-156.8c19.2-3.2 12.8 0 32-3.2l28.8 112z" horiz-adv-x="576" />
<glyph unicode="&#xe615;" d="M419.026 391.636l-160.849 81.192c-19.209 9.221-41.237 9.221-60.446 0l-161.361-81.192c-22.027-11.013-36.37-34.065-36.37-58.397v-218.99c0-24.844 14.343-47.64 36.37-58.397l160.849-81.192c19.209-9.22 41.237-9.22 60.446 0l160.849 81.192c22.027 11.269 36.37 34.065 36.37 58.397v218.477c0.512 24.845-13.831 47.896-35.858 58.91zM354.993 165.219c0-35.089-28.43-63.52-63.52-63.52h-126.784c-35.089 0-63.52 28.43-63.52 63.52v116.538c0 35.089 28.43 63.52 63.52 63.52h127.040c16.649 0 31.504-6.403 42.774-16.905 3.074-2.305 6.147-5.123 7.684-8.196 0 0 0 0 0-0.256 0 0 0 0 0 0 1.281-3.329 0.512-5.378-2.562-11.013l-99.377-143.944c-3.842-5.123-7.428-6.916-14.087-7.171-6.403-0.512-10.501 1.793-14.343 5.635l-56.348 60.702c-6.147 5.891-6.147 15.368 0 21.258v0c6.147 5.891 16.392 5.891 22.54 0l43.285-30.735 78.887 97.329c-2.817 0.768-5.635 1.281-8.709 1.281h-126.784c-17.416 0-31.76-14.087-31.76-31.76v-116.282c0-17.416 14.087-31.76 31.76-31.76h127.039c17.416 0 31.76 14.087 31.76 31.76v73.765c0 2.561 0.769 5.379 2.305 7.428l16.904 24.589c12.55 18.954 12.55 21.002 12.55-3.842v-101.939z" horiz-adv-x="455" />
<glyph unicode="&#xe616;" d="M291.84 111.36c-10.24-10.24-17.92-15.36-33.28-15.36s-23.040 5.12-33.28 12.8l-122.88 133.12c-15.36 15.36-15.36 35.84 0 48.64v0c12.8 12.8 35.84 12.8 51.2 0l97.28-69.12 202.24 248.32c-15.36 7.68-28.16 10.24-43.52 10.24h-307.2c-56.32 0-102.4-46.080-102.4-102.4v-307.2c0-56.32 46.080-102.4 102.4-102.4h307.2c56.32 0 102.4 46.080 102.4 102.4v307.2c0 15.36-2.56 28.16-7.68 40.96l-212.48-307.2z" />
<glyph unicode="&#xe617;" d="M241.92 90.368l113.664 51.968v152.32l-113.664-51.968v-152.32zM99.584 142.080l113.664-51.968v152.576l-113.664 51.968c0 0 0-152.576 0-152.576zM418.816 391.936l-160.768 81.152c-19.2 9.216-41.216 9.216-60.416 0l-161.28-81.152c-22.016-11.264-36.352-34.048-36.352-58.368v-218.88c0-24.832 14.336-47.616 36.352-58.368l160.768-81.408c19.2-9.216 41.216-9.216 60.416 0l160.768 81.152c22.016 11.264 36.352 34.048 36.352 58.368v218.624c0.512 24.832-13.824 47.616-35.84 58.88zM374.528 119.296l-140.288-63.744c-4.352-2.048-9.216-2.048-13.568 0l-140.288 63.744c-5.888 2.56-9.472 8.448-9.472 14.848v178.432c0 6.4 3.84 12.032 9.472 14.848l140.544 63.744c4.352 2.048 9.216 2.048 13.568 0l140.288-63.744c5.888-2.56 9.472-8.448 9.472-14.848v-178.432c-0.256-6.4-3.84-12.032-9.728-14.848zM122.368 315.136l105.216-47.616 105.216 47.616-105.216 47.616-105.216-47.616z" horiz-adv-x="455" />
<glyph unicode="&#xe618;" d="M459.408 381.003l-211.916 95.904c-6.188 3.094-13.922 3.094-20.109 0l-211.916-95.904c-7.734-4.64-13.921-12.374-13.921-23.202v-269.148c0-9.281 4.641-18.562 13.921-23.202l211.916-95.904c6.188-3.094 13.922-3.094 20.109 0l211.916 95.904c9.281 4.64 13.921 12.375 15.469 23.202v269.148c-1.547 10.828-6.188 18.562-15.469 23.202zM215.009 22.139l-171.698 78.888v230.477l171.698-78.888v-230.478zM236.665 291.287l-159.323 71.154 159.323 71.154 159.323-72.701-159.323-69.608zM430.018 101.027l-171.698-78.888v230.477l171.698 78.888v-230.477z" horiz-adv-x="474" />
<glyph unicode="&#xe619;" d="M341.334 224l152.381 152.381c24.381 24.381 24.381 60.953 0 85.334s-60.952 24.381-85.334 0l-152.381-152.381-152.381 152.381c-24.381 24.381-60.953 24.381-85.334 0s-24.381-60.953 0-85.334l152.381-152.381-152.381-152.381c-24.381-24.381-24.381-60.952 0-85.334s60.953-24.381 85.334 0l152.381 152.381 152.381-152.381c24.381-24.381 60.952-24.381 85.334 0s24.381 60.952 0 85.334l-152.381 152.381z" />
<glyph unicode="&#xe61a;" d="M444.8-28.8l-121.6 121.6c-32-22.4-73.6-35.2-115.2-35.2-115.2 0-208 96-208 211.2s92.8 211.2 208 211.2c115.2 0 208-96 208-211.2 0-41.6-12.8-80-32-112l121.6-121.6c6.4-6.4 0-22.4-12.8-35.2l-12.8-16c-12.8-12.8-28.8-19.2-35.2-12.8zM348.8 268.8c0 76.8-64 140.8-140.8 140.8s-140.8-64-140.8-140.8c0-76.8 64-140.8 140.8-140.8 80 0 140.8 64 140.8 140.8z" />
<glyph unicode="&#xe61b;" d="M418.816 391.936l-160.768 81.152c-19.2 9.216-41.216 9.216-60.416 0l-161.28-81.152c-22.016-11.264-36.352-34.048-36.352-58.368v-218.88c0-24.832 14.336-47.616 36.352-58.368l160.768-81.152c19.2-9.216 41.216-9.216 60.416 0l160.768 81.152c22.016 11.264 36.352 34.048 36.352 58.368v218.368c0.512 24.832-13.824 47.616-35.84 58.88zM339.968 81.664l-113.408 76.032-113.408-75.52 44.032 121.6-92.928 85.76h121.344l41.216 103.168 41.216-103.168h121.088l-93.184-85.504 44.032-122.368zM248.32 260.864l-21.76 54.784-21.76-54.784h-67.328l53.248-48.896-20.992-57.856 56.832 38.144 57.088-38.4-20.992 58.368 52.992 48.64z" horiz-adv-x="455" />
<glyph unicode="&#xe61c;" d="M512 284.509c-2.327 6.982-6.982 11.636-13.964 11.636l-169.891 4.655-55.855 167.564c-2.327 6.982-9.309 11.636-16.291 11.636s-11.637-4.654-13.964-11.636l-55.855-167.564-172.218-4.655c-4.654 0-11.636-4.654-13.963-11.636s0-13.964 4.654-18.618l134.982-107.054-46.546-169.891c-2.328-6.982 0-13.964 4.654-18.618 6.982-2.327 13.963-2.327 18.618 0l139.637 102.4 139.637-102.4c2.327-2.327 4.654-2.327 9.309-2.327 2.327 0 6.982 0 9.309 2.327 4.654 4.654 6.982 11.637 4.654 18.618l-48.873 169.891 134.982 107.055c6.982 6.982 9.309 13.964 6.982 18.618z" />
<glyph unicode="&#xe61d;" d="M256 480c-141.867 0-256-114.134-256-256s114.133-256 256-256 256 114.134 256 256c0 141.866-114.134 256-256 256zM256 53.334v0c-23.466 0-42.666 19.2-42.666 42.666v0c0 23.466 19.2 42.666 42.666 42.666v0c23.466 0 42.666-19.2 42.666-42.666v0c0-23.466-19.2-42.666-42.666-42.666zM362.666 291.2c0-55.466-30.933-87.466-78.933-99.2v-12.8c0-10.666-8.534-19.2-19.2-19.2h-17.066c-9.6 0-18.133 7.466-19.2 17.067l-10.667 67.2c51.2 4.267 60.8 21.334 60.8 40.534v0c0 42.666-51.2 20.267-77.867 3.2-6.4-4.267-16-3.2-21.333 3.2l-27.733 34.133c-5.333 6.4-4.267 17.067 2.133 22.4 67.2 52.267 209.066 54.4 209.066-56.534v0z" />
<glyph unicode="&#xe61e;" d="M243.2 433.067l213.334-213.334c4.267-4.267 8.534-12.8 8.534-17.067s0-8.534-8.534-17.067l-166.4-166.4c-4.267-4.267-12.8-8.534-17.067-8.534s-8.534 0-17.067 8.534l-213.333 213.333v200.533h200.534zM264.534 480h-264.534v-264.534l226.133-226.134c17.066-12.8 34.133-21.333 51.2-21.333s34.133 8.534 51.2 21.334l166.4 166.4c25.6 25.6 25.6 72.534 0 98.133l-230.4 226.133zM174.934 364.8c-34.133 0-59.733-25.6-59.733-59.733s25.6-59.734 59.733-59.734c34.133 0 59.733 25.6 59.733 59.734s-29.867 59.733-59.733 59.733zM174.934 292.267c-8.534 0-12.8 4.267-12.8 12.8s4.267 12.8 12.8 12.8c8.534 0 12.8-4.267 12.8-12.8 0-4.267-8.534-12.8-12.8-12.8z" />
<glyph unicode="&#xe61f;" d="M628.221 420.319c-21.987-9.424-47.116-15.706-75.386-18.847 25.129 15.706 47.116 40.835 56.54 72.246-25.129-15.706-53.399-25.129-81.668-31.411-21.988 21.988-56.54 37.693-91.092 37.693-72.245 0-128.786-56.54-128.786-128.786 0-9.423 0-18.846 3.141-28.27-109.939 3.141-204.172 56.54-266.994 131.927-12.565-18.846-18.846-40.834-18.846-62.822 0-43.976 21.988-84.81 56.54-106.798-18.846 0-37.694 6.282-56.54 15.706 0 0 0 0 0-3.141 0-62.822 43.975-116.221 103.656-125.644-9.424-3.141-21.987-3.141-34.552-3.141-9.424 0-15.706 0-25.129 3.141 15.706-50.257 62.822-87.951 119.362-91.092-43.976-34.552-100.516-56.54-160.196-56.54-9.424 0-21.988 0-31.411 3.141 56.54-37.694 125.644-59.681 197.889-59.681 238.724 0 370.65 197.889 370.65 367.509 0 6.282 0 12.565 0 15.706 25.129 18.846 47.116 40.834 62.822 69.104z" horiz-adv-x="628" />
<glyph unicode="&#xe620;" d="M353.28 236.8c-10.24 0-20.48-10.24-17.92-23.040 2.56-25.6-5.12-51.2-25.6-69.12l-117.76-112.64c-33.28-33.28-89.6-33.28-122.88 0l-2.56 2.56c-33.28 33.28-33.28 84.48 0 117.76l117.76 112.64c20.48 20.48 48.64 28.16 76.8 23.040 10.24-2.56 23.040 5.12 23.040 15.36 5.12 10.24-2.56 23.040-12.8 23.040-43.52 7.68-84.48-5.12-115.2-33.28l-117.76-112.64c-51.2-48.64-51.2-125.44 0-174.080l2.56-2.56c25.6-23.040 58.88-35.84 89.6-35.84 33.28 0 66.56 12.8 89.6 35.84l117.76 112.64c28.16 25.6 40.96 64 35.84 99.84 0 12.8-10.24 20.48-20.48 20.48zM30.72 211.2c10.24 2.56 20.48 10.24 17.92 23.040-2.56 25.6 5.12 51.2 25.6 69.12l117.76 112.64c15.36 15.36 38.4 25.6 61.44 25.6s46.080-7.68 61.44-25.6l2.56-2.56c33.28-33.28 33.28-84.48 0-117.76l-117.76-112.64c-20.48-20.48-48.64-28.16-76.8-23.040-10.24 2.56-23.040-5.12-23.040-15.36-2.56-10.24 5.12-20.48 17.92-23.040 7.68 0 15.36-2.56 23.040-2.56 33.28 0 66.56 12.8 89.6 35.84l117.76 112.64c51.2 48.64 51.2 125.44 0 174.080l-2.56 2.56c-25.6 23.040-56.32 35.84-92.16 35.84-33.28 0-66.56-12.8-89.6-35.84l-117.76-112.64c-28.16-28.16-40.96-64-35.84-102.4 0-12.8 10.24-20.48 20.48-17.92z" horiz-adv-x="384" />
</font>
</defs>
</svg>
